<svg id="visual" viewBox="0 0 960 540" width="960" height="540" xmlns="http://www.w3.org/2000/svg" xmlns:xlink="http://www.w3.org/1999/xlink" version="1.1"><rect x="0" y="0" width="960" height="540" fill="#F7CB46"></rect><path d="M0 287L9.3 310.5C18.7 334 37.3 381 56.2 388.8C75 396.7 94 365.3 112.8 337.8C131.7 310.3 150.3 286.7 169.2 283C188 279.3 207 295.7 225.8 314C244.7 332.3 263.3 352.7 282.2 372.3C301 392 320 411 338.8 408.3C357.7 405.7 376.3 381.3 395.2 366.8C414 352.3 433 347.7 451.8 348.5C470.7 349.3 489.3 355.7 508.2 364.5C527 373.3 546 384.7 564.8 382.3C583.7 380 602.3 364 621.2 363.3C640 362.7 659 377.3 677.8 392C696.7 406.7 715.3 421.3 734.2 418.2C753 415 772 394 790.8 364.7C809.7 335.3 828.3 297.7 847.2 292.8C866 288 885 316 903.8 321C922.7 326 941.3 308 950.7 299L960 290L960 541L950.7 541C941.3 541 922.7 541 903.8 541C885 541 866 541 847.2 541C828.3 541 809.7 541 790.8 541C772 541 753 541 734.2 541C715.3 541 696.7 541 677.8 541C659 541 640 541 621.2 541C602.3 541 583.7 541 564.8 541C546 541 527 541 508.2 541C489.3 541 470.7 541 451.8 541C433 541 414 541 395.2 541C376.3 541 357.7 541 338.8 541C320 541 301 541 282.2 541C263.3 541 244.7 541 225.8 541C207 541 188 541 169.2 541C150.3 541 131.7 541 112.8 541C94 541 75 541 56.2 541C37.3 541 18.7 541 9.3 541L0 541Z" fill="#99E885" stroke-linecap="round" stroke-linejoin="miter"></path></svg>